<svg xmlns="http://www.w3.org/2000/svg" id="Layer_1" data-name="Layer 1" viewBox="0 0 352.77 61.46"><defs><style>.cls-1,.cls-2{fill:#231f20;}.cls-1{fill-rule:evenodd;}</style></defs><path class="cls-1" d="M342.37,674.19h2.17c2,0,3.45.3,3.45,2.1s-1,2.2-3,2.3h-2.61Zm0,7.12h2.77c2.08,0,3.68.61,3.68,2.56,0,2.29-2,2.61-4.59,2.61h-1.86Zm-3.11,7.9h5.54c3.35,0,7.17-.77,7.17-5.09a4.56,4.56,0,0,0-3.5-4.46,3.91,3.91,0,0,0,2.69-3.84c0-3.48-2.59-4.39-7.66-4.39h-4.24Z" transform="translate(-121.57 -650.91)"></path><path class="cls-1" d="M357.08,681.25a3.46,3.46,0,0,1,6.89,0Zm9.9,2.2c0-.05,0-.38,0-.83,0-3.81-2.21-6.92-6.38-6.92-4,0-6.67,3-6.67,6.95s2.62,7,6.72,7a6.11,6.11,0,0,0,6.12-4.14h-3.07a3.14,3.14,0,0,1-3,1.63,3.75,3.75,0,0,1-3.75-3.68Z" transform="translate(-121.57 -650.91)"></path><rect class="cls-2" x="248.05" y="20.52" width="3.04" height="17.79"></rect><rect class="cls-2" x="254.72" y="20.52" width="3.04" height="17.79"></rect><path class="cls-1" d="M390.65,683.74c0,2.21-1,3.56-3.2,3.56-1.38,0-2.27-.59-2.27-1.79,0-1.39,1.5-1.89,4.82-2.24l.68-.07a5.07,5.07,0,0,0,0,.53m-5.19-3.49a2.29,2.29,0,0,1,2.62-2.14c1.73,0,2.5.82,2.55,3-.84.08-1.89.2-3,.36-2.77.39-5.67,1.4-5.67,4.14,0,2.47,1.93,3.88,4.64,3.88a5.13,5.13,0,0,0,4.34-2,8.45,8.45,0,0,0,.15,1.72h2.78a21.22,21.22,0,0,1-.29-4V681.5c0-4.46-2.23-5.77-5.41-5.77-3.4,0-5.47,2-5.6,4.51Z" transform="translate(-121.57 -650.91)"></path><path class="cls-1" d="M395.88,685.08c.5,3.07,2.42,4.54,5.65,4.54,3,0,5.21-1.72,5.21-4.31,0-2.24-1.33-3.14-4-3.86l-1.44-.37c-1.32-.36-2-.65-2-1.49s.67-1.43,2-1.43a2.42,2.42,0,0,1,2.53,1.65h2.7c-.22-2.58-2.35-4.08-5.16-4.08s-5,1.65-5,4,1.7,3.28,3.81,3.86l1.45.4c1.34.36,2.31.62,2.31,1.53s-1,1.64-2.31,1.64a2.74,2.74,0,0,1-2.84-2.11Z" transform="translate(-121.57 -650.91)"></path><path class="cls-1" d="M421.79,674.29h0c.59,1.71,2.18,5.87,2.18,5.87.15.42.48,1.22.48,1.22h-5.38l.44-1.22c.74-1.92,1.49-3.93,2.24-5.87m-9,14.92h3.25l2-5.11h7.46c.68,1.71,1.32,3.41,2,5.11h3.29l-7.21-17.78h-3.43c-4.78,11.41-6,14.58-7.36,17.78" transform="translate(-121.57 -650.91)"></path><path class="cls-1" d="M432.43,676.15c0,.8,0,1.55,0,2.37v10.69h3v-6.14c0-2.72.42-4.4,2.79-4.4a3.3,3.3,0,0,1,.87.1v-2.9c-.18,0-.4,0-.73,0a3.17,3.17,0,0,0-3.16,2.08,7.86,7.86,0,0,0,0-.86v-.89Z" transform="translate(-121.57 -650.91)"></path><path class="cls-1" d="M445,672.62h-3v3.53h-2v2.27h2v7.66c0,2.59,1.58,3.38,4.05,3.38a6.09,6.09,0,0,0,1.17-.09v-2.24a3.65,3.65,0,0,1-.62.06c-1,0-1.57-.4-1.57-1.63v-7.14h2.44v-2.27H445Z" transform="translate(-121.57 -650.91)"></path><path class="cls-1" d="M452.06,681.25a3.45,3.45,0,0,1,6.88,0Zm9.9,2.2c0-.05,0-.38,0-.83,0-3.81-2.22-6.92-6.4-6.92-4,0-6.67,3-6.67,6.95s2.64,7,6.73,7a6.09,6.09,0,0,0,6.11-4.14h-3.06a3.15,3.15,0,0,1-3,1.63,3.76,3.76,0,0,1-3.77-3.68Z" transform="translate(-121.57 -650.91)"></path><path class="cls-1" d="M463.5,685.08c.49,3.07,2.41,4.54,5.64,4.54,3.06,0,5.2-1.72,5.2-4.31,0-2.24-1.31-3.14-4-3.86l-1.44-.37c-1.31-.36-2-.65-2-1.49s.67-1.43,2-1.43a2.45,2.45,0,0,1,2.54,1.65h2.67c-.21-2.58-2.33-4.08-5.13-4.08s-5,1.65-5,4,1.68,3.28,3.8,3.86l1.44.4c1.33.36,2.32.62,2.32,1.53s-1,1.64-2.32,1.64a2.75,2.75,0,0,1-2.84-2.11Z" transform="translate(-121.57 -650.91)"></path><path class="cls-1" d="M207.26,674.27h.05c.59,1.71,2.17,5.86,2.17,5.86.15.42.47,1.23.47,1.23h-5.37l.44-1.23c.74-1.91,1.5-3.93,2.24-5.86m-8.95,14.93h3.22l2-5.13H211c.67,1.72,1.3,3.41,2,5.13h3.29l-7.23-17.8h-3.43c-4.78,11.42-6,14.58-7.33,17.8" transform="translate(-121.57 -650.91)"></path><path class="cls-1" d="M220.82,676.12h-2.9c0,.7,0,1.33,0,2V689.2h3v-7.29c0-2.1.79-3.66,2.8-3.66,1.83,0,2.54,1.26,2.54,3.9v7.05h3v-7.57c0-2,1-3.38,2.84-3.38s2.5,1.29,2.5,4v7h3v-8.12c0-3.42-1.68-5.38-4.7-5.38a5.07,5.07,0,0,0-4.4,2.22,4.14,4.14,0,0,0-3.91-2.22,4.36,4.36,0,0,0-3.93,2.07c0-.3,0-.54,0-.82Z" transform="translate(-121.57 -650.91)"></path><path class="cls-1" d="M241.06,674.24h3.1V671.4h-3.1Zm.05,15h3V676.12h-3Z" transform="translate(-121.57 -650.91)"></path><path class="cls-1" d="M253.14,678.25a3.57,3.57,0,0,1,3.74,3.87c0,2.61-1.62,4-3.74,4-2.33,0-3.71-1.64-3.71-4s1.42-4,3.71-4m6.62-2.13h-2.88V677c0,.32,0,.57,0,.87a5.26,5.26,0,0,0-4.53-2.14c-3.48,0-6.05,2.61-6.05,6.5,0,3.72,2.33,6.39,6.13,6.39a5,5,0,0,0,4.45-2.13H257c0,3.18-1.07,5-4,5a3.1,3.1,0,0,1-3-1.79h-3.21c.69,2.56,2.93,4.29,6.21,4.29,4.34,0,6.77-2.65,6.77-6.92Z" transform="translate(-121.57 -650.91)"></path><path class="cls-1" d="M268.64,678.23c2.3,0,3.68,1.83,3.68,4.42s-1.36,4.4-3.68,4.4-3.65-1.74-3.65-4.4,1.39-4.42,3.65-4.42m.05-2.56c-4.11,0-6.82,2.9-6.82,7s2.57,6.91,6.77,6.91a6.52,6.52,0,0,0,6.89-6.91c0-4.11-2.71-7-6.84-7" transform="translate(-121.57 -650.91)"></path><path class="cls-1" d="M277.21,685.06c.49,3.06,2.41,4.53,5.65,4.53,3,0,5.2-1.71,5.2-4.3,0-2.24-1.33-3.14-4-3.85l-1.44-.38c-1.32-.36-2-.65-2-1.5s.68-1.45,2-1.45a2.46,2.46,0,0,1,2.54,1.68h2.69c-.22-2.59-2.33-4.09-5.16-4.09s-5,1.64-5,4,1.69,3.27,3.81,3.85l1.45.39c1.34.37,2.31.62,2.31,1.55s-1,1.61-2.31,1.61a2.72,2.72,0,0,1-2.84-2.09Z" transform="translate(-121.57 -650.91)"></path><path class="cls-2" d="M306.54,689v-1.85a5.26,5.26,0,0,1-4.55,2.15c-3.58,0-6.07-2.8-6.07-6.92s2.39-7,6.15-7a5.17,5.17,0,0,1,4.32,2.1c0-.93,0-1.7,0-2.62v-3.82h3V689Zm-7.48-6.57c0,2.51,1.35,4.39,3.64,4.39s3.82-1.91,3.82-4.49-1.59-4.4-3.79-4.4-3.67,2-3.67,4.5" transform="translate(-121.57 -650.91)"></path><path class="cls-2" d="M315,683.19a3.79,3.79,0,0,0,3.79,3.72,3.2,3.2,0,0,0,3-1.63h3.09a6.14,6.14,0,0,1-6.17,4.16c-4.13,0-6.78-2.9-6.78-7s2.71-7,6.72-7c4.21,0,6.42,3.13,6.46,7,0,.45,0,.79,0,.83ZM322,681a3.49,3.49,0,0,0-7,0Z" transform="translate(-121.57 -650.91)"></path><rect class="cls-2" x="205.9" y="20.21" width="3.06" height="17.93"></rect><polygon class="cls-2" points="28.26 23 28.26 43.13 23.57 43.13 23.57 23 16.05 23 16.05 43.13 11.35 43.13 11.35 18.33 52.69 18.33 52.69 43.13 47.99 43.13 47.99 23 40.48 23 40.48 43.13 35.78 43.13 35.78 23 28.26 23"></polygon><path class="cls-2" d="M126.52,707.42h45.73a8.42,8.42,0,0,0,8.41-8.41V655.85H134.93a8.42,8.42,0,0,0-8.41,8.41Zm45.73,5H121.57V664.26a13.37,13.37,0,0,1,13.36-13.35h50.68V699a13.37,13.37,0,0,1-13.36,13.36" transform="translate(-121.57 -650.91)"></path></svg>