<svg xmlns="http://www.w3.org/2000/svg" width="373.063" height="57" viewBox="0 0 373.063 57"><g transform="translate(-773 -69)"><path d="M161.945,83.955c2.364.014,4.158,1.609,4.158,4.542,0,2.378-1.239,3.945-2.762,3.959a2.069,2.069,0,0,1-1.4-.455Zm-3.517,9.028,4.016.014c4.258.014,6.323-2.321,6.323-4.927,0-2.72-2.207-4.514-5.568-4.556l-4.77.014v.5l1.1.27v7.917l-1.1.256Zm31.1-4.542.456,1.481h.5v-3.7H190l-.47,1.566h-1.5v-3.7h2.991l.954,2.264h.485V83.514l-1.239.014h-6.736v.5l1.1.285v7.9l-1.1.271v.5h7.775l.584-3.29h-.5l-1.581,2.734H189.03a1.294,1.294,0,0,1-1-.413V88.441Zm36.582,4.542h3.446V92.47l-1.566-.3.313-7.148,2.677,6.123.6,1.524h.327l.613-1.552,2.492-6.252.3,7.348-1.125.271v.5h4.685v-.5l-1.1-.271-.4-7.932,1.082-.256v-.5h-3.588l-.114.455-2.093,5.2-2.421-5.653h-3.717v.5l1.168.285-.455,7.9-1.125.271Zm33.435-4.542L260,89.922h.5v-3.7h-.484l-.47,1.566h-1.5v-3.7h2.991l.954,2.264h.484V83.514l-1.239.014H254.5v.5l1.1.285v7.9l-1.1.271v.5h7.775l.584-3.29h-.5l-1.58,2.734h-1.738a1.3,1.3,0,0,1-1-.413V88.441h1.495Zm.128-7.775-1.082,2.079h.726l2.321-1.895v-.185h-1.965Zm18.669,11.8v.513h3.246V92.47l-1.168-.284,2.122-3.048h.028l1.851,3.076-1.082.256v.513h4.969V92.47l-1.025-.256-2.848-4.485,2.492-3.4,1.04-.3v-.5H284.75v.512l1.253.313L284.066,87.1h-.029l-1.68-2.805,1.1-.27v-.5h-4.941v.5l1,.27,2.677,4.243-2.762,3.689Zm25.375.513h4.642v-.5l-1.1-.271V84.3l1.1-.27v-.5h-4.642v.5l1.1.27v7.917l-1.1.271Zm25.988.213a8.272,8.272,0,0,0,3.261-.684l.569-2.834h-.456l-1.623,2.507a2.268,2.268,0,0,1-1.367.427c-1.709,0-3.061-1.751-3.061-4.842,0-2.478,1.139-3.973,2.662-3.973a2.663,2.663,0,0,1,1.866.769l1.1,2.179h.442l-.029-2.763A6.892,6.892,0,0,0,330,83.258c-3.232,0-5.839,2.221-5.839,5.141,0,2.435,1.737,4.8,5.539,4.8m25.2-.569c-1.581,0-2.72-2.093-2.72-4.728,0-2.606.869-4.058,2.279-4.058,1.666,0,2.72,2.25,2.72,4.714,0,2.577-.855,4.073-2.278,4.073m-.2-9.37a5.144,5.144,0,0,0-5.24,5.027,4.9,4.9,0,0,0,5.183,4.927,5.126,5.126,0,0,0,5.269-5.1C359.922,85.165,357.573,83.258,354.71,83.258Z" transform="translate(695.99 32.789)" fill="#001834" fill-rule="evenodd"/><path d="M362.489,19.131c.1,9.662-1.872,17.351-8.954,17.4-7.133.1-9.258-8.448-9.41-17.149-.152-9.055,1.568-17.2,8.9-17.3,7.436-.1,9.308,8.4,9.46,17.048m10.573.1C373.062,7.8,363.147.11,353.282.11S333.5,7.8,333.5,19.233s9.915,19.123,19.78,19.123,19.78-7.69,19.78-19.123m-42.285-.057c0-10.338-8.44-17.731-22.19-17.731H288.8V3.724l4.3,1V35.073l-4.3,1v2.278h17.215C323.791,38.351,330.777,28.291,330.777,19.176Zm-12.408,2.057c0,9.393-4.695,14.841-9.278,14.841a6.911,6.911,0,0,1-4.7-1.668V3.223c8.216.5,13.973,6.949,13.973,18.009M283.787,38.351l2.795-15.285h-2.068L277.3,36.017h-3.967a5.808,5.808,0,0,1-4.472-1.612V4.724l4.3-1V1.445H253.1V3.724l4.3,1V35.073l-4.3,1v2.278Zm-54.495,0h20.625V36.073l-3.242-.667L232.7,0l-3.074.611-2.459.5L213.195,35.128l-3.409.945v2.278h12.8V36.073l-6.036-1.168,2.922-7.666a11.183,11.183,0,0,1,1.956-.837h.222c.494.23,1.368,2.038,6.1,2.038a4.544,4.544,0,0,0,3.094-1.112l2.8,7.967-4.359.779Zm.168-14.9H227.8a5.164,5.164,0,0,1-1.512-.6,7.324,7.324,0,0,0-4.757-1.017l3.852-10.054Zm-22.078,14.9,2.313-6.448-.619-1.156-4.087,2.683h-.694L196.6,20.4v-.278c5.534-2.112,7.936-5.5,7.936-9.283,0-5.057-4.751-9.393-18.612-9.393H168.928V3.724l4.3,1V35.073l-4.3,1v2.278H188.49V36.073l-3.968-1V22.344h.95l9.446,16.007h3.589v0ZM193.856,12.395a7.73,7.73,0,0,1-5.366,7.392h-3.968V3.724c5.087.389,9.334,3.446,9.334,8.671M146.1,34.409V22.469h7.127s.248-5.168,2.312-6.447l-.619-1.156a8.307,8.307,0,0,0-4.087,2.683H146.1V3.782h11.066l4.025,9.282h2.123V1.448H130.334V3.727l4.3,1V35.075l-4.3,1v2.278h32.082l2.069-13.673h-2.124l-6.483,11.394h-5.365A5.706,5.706,0,0,1,146.1,34.409Zm-40.213,3.943H126.06V36.073l-4.3-1V4.724l4.3-1V1.445H105.995V3.724l4.3,1V17.953H96.157V4.724l4.3-1V1.445H80.4V3.724l4.3,1V35.073l-4.3,1v2.278h20.066V36.073l-4.3-1V21.066H110.3V35.073l-4.415,1Zm-37.877,0,2.8-15.285H68.733l-7.21,12.951H57.555a5.806,5.806,0,0,1-4.471-1.612V4.724l4.3-1V1.445H37.321V3.724l4.3,1V35.073l-4.3,1v2.278ZM15.762,34.409V22.469H22.89s.247-5.168,2.312-6.447l-.619-1.156A8.31,8.31,0,0,0,20.5,17.549H15.762V3.782H26.829l4.024,9.282h2.124V1.448H0V3.727l4.3,1V35.075l-4.3,1v2.278H32.082l2.068-13.673H32.027L25.543,36.076H20.178A5.706,5.706,0,0,1,15.762,34.409Z" transform="translate(773 69)" fill="#001834" fill-rule="evenodd"/></g></svg>