<?xml version="1.0" encoding="utf-8"?>
<!-- Generator: Adobe Illustrator 27.1.1, SVG Export Plug-In . SVG Version: 6.00 Build 0)  -->
<svg version="1.1" id="Capa_1" xmlns="http://www.w3.org/2000/svg" xmlns:xlink="http://www.w3.org/1999/xlink" x="0px" y="0px"
	 viewBox="0 0 946 103" style="enable-background:new 0 0 946 103;" xml:space="preserve">
<style type="text/css">
	.st0{fill:#0068A2;}
</style>
<g>
	<g>
		<g>
			<polygon class="st0" points="205,86 146,86 146,80 154,80 154,18 146,18 146,12 204,12 204,32 197,32 197,21 175,21 175,45 
				184,45 184,37 191,37 191,59 184,59 184,51 175,51 175,78 198,78 198,66 205,66 			"/>
			<polygon class="st0" points="270,86 212,86 212,80 220,80 220,18 212,18 212,12 250,12 250,18 241,18 241,78 263,78 263,66 
				270,66 			"/>
			<path class="st0" d="M369,18l-6,0l0,41.6c0,20.2-12.2,27.1-31,27.1c-20.4,0-31-8.8-31-24l0-44.7l-7,0l0-6l35,0l0,6l-8,0l0,41.3
				c0,15.9,6.4,19.7,18.2,19.7c12.3,0,16.8-6.5,16.8-19.7l0-41.3l-10,0l0-6l23,0L369,18z"/>
			<path class="st0" d="M396,80l10,0l0,6l-26,0l0-6l8,0l0-58.7c0-0.1-2.4-3.3-2.4-3.3l-8.6,0l0-6l27.6,0L440,62.7l0-44.7l-11,0l0-6
				l27,0v6h-7l0,69l-12.9,0L396,32.5L396,80z"/>
			<polygon class="st0" points="502,86 464,86 464,80 473,80 473,18 464,18 464,12 502,12 502,18 493,18 493,80 502,80 			"/>
			<polygon class="st0" points="554.2,87 542.7,87 515.8,18 510,18 510,12 547,12 547,18 536.2,18 554.6,68.6 573.1,18 565,18 
				565,12 587,12 587,18 581.1,18 			"/>
			<polygon class="st0" points="653,86 595,86 595,80 601,80 601,18 595,18 595,12 652,12 652,32 644,32 644,21 621,21 621,45 
				631,45 631,37 638,37 638,59 631,59 631,51 621,51 621,78 645,78 645,66 653,66 			"/>
			<path class="st0" d="M701,51.8c18.9-1.8,22.8-10.4,22.8-18.8c0-13.4-8.3-21-26.4-21L660,12l0,6l9,0l0,62l-9,0l0,6l37,0l0-6l-8,0
				l0-23l2.9,0l16.9,29l24.2,0l0-6l-5.3,0l-9.9-16.6c-5-8.3-7-10.4-16.7-11.2V51.8z M689,20l0.9,0c11,0,13,4.5,13,13.9
				c0,9.6-1.4,16.1-13.5,16.1l-0.4,0L689,20z"/>
			<path class="st0" d="M749,87l-8,0l0-21l8,0l0,11.8c5.3,1.6,9.8,1.9,16.2,1.9c9.1,0,12.5-2.5,12.5-9c0-5.1-4.4-7.4-14.6-12.4
				c-15.9-7.8-21.3-13-21.3-26.3c0-13.7,10.2-20.3,23.8-20.3c4.3,0,13.9,1.5,17.3,4.1l0-4.9l7,0l0,21l-7,0l0-10.6
				c-4.1-1.1-8.7-1.3-12.7-1.3c-7.5,0-11.1,2.3-11.1,7.8c0,6.6,4.4,8.5,13.6,13c12.5,6.1,21.8,10.9,21.8,25.6
				c0,14-10.7,20.9-25.2,20.9c-6.4,0-15.4-1.3-20.4-4.3L749,87z"/>
			<path class="st0" d="M817.1,65l27.2,0l5.8,15l-9,0l0,6l35,0l0-6l-6.3,0l-26.9-69l-11.5,0l-26.9,69l-7.3,0l0,6l22,0l0-6l-7.7,0
				L817.1,65z M842.2,59l-21.8,0c0.1,0,11-28.2,11-28.2L842.2,59z"/>
			<polygon class="st0" points="939,86 884,86 884,80 890,80 890,18 883,18 883,12 917,12 917,18 910,18 910,78 932,78 932,66 
				939,66 			"/>
		</g>
	</g>
	<g>
		<path class="st0" d="M22.5,61.6c4.3,2.3,7.5,2.9,22.8,3.5c2.4-0.3-4.5-1.1-5.8-1.5c-5.1-1.5-0.6-2.3-4-2.1
			c-3.3,0.2-7.4-0.2-10-0.7C22.3,60.4,19.1,59.1,22.5,61.6z"/>
		<path class="st0" d="M99,43.4c0.2-0.3,0.4-0.6,0.6-0.8C99.4,42.8,99.2,43.1,99,43.4z"/>
		<path class="st0" d="M49.4,73.7c1.2,1.6,6.5,1.9,8.3,1.3c1.6,0.1,0.6-0.8-0.4-0.9c-0.9,0.2-1.9-0.8-2.1-0.7
			C51.1,74.4,49.2,73,49.4,73.7z"/>
		<path class="st0" d="M136.4,49.1c-6.9,1.2-25.2-2.5-33.3,0.9c1.2-3.4,1.8-7.1,1.8-11.5c0-20.2-16.3-36.6-36.4-36.6
			c-20.1,0-36.4,16.4-36.4,36.6c0,4.2,0.7,8.2,2,12C5.8,52.6,2.8,47.6,2.3,50C2.7,56.4,12,62.4,16,61.8c0,0,5.2,6.4,14.2,6.9
			c0,0,3.4,3.6,8.4,3.8c1.3,1.7,4,4.1,7.2,3.3c0,0,0.7,1.7,3,2.1c0,0-0.1,0.7,0.8,1.1c-2,0-15.2,2.4-20.8,7c0.5,2.4,5.3,3.9,6.6,3.7
			c1.1,2.4,4,4.5,6.7,4.5c2.7,2.7,5.9,3.1,8.1,2.8c2.4,1,8.2-1,9.1-5.2c0.4-1.7,1.6-4.3,4-4.6c0,0,1.1,0.2,1.9,1.2
			c-1.3,1.1-1.6,5,0.5,6.4c2.1,1.3,4.5,1.2,6.7,0.7c1.4,1.3,2.5,0.3,3.3,0.7c-0.3,0.5,1.2,1.4,2.5,0.8c1.4-0.6,1.5-1.2,1.7-1.6
			c0.5-0.4,0.5-1.1,0.4-1.3c0.8-0.3,0.6-1,0.5-1.2c0.9,0.2,1.7-1.1,1.7-1.9c-0.1-1.7-1.2-1.9-2.7-1.9c1.8-1.4,4-1.5,7.3-2
			c3-0.4,4.8-1.2,6.4-1.9c1.8-0.6,3.5-0.5,5-0.9c1.1-0.2,1.9-0.1,2.5-0.3c0.4,0.4,1.7,0.9,5.3,0.4c3.9-0.6,8.5-0.5,8.5-0.5
			c2.3-6.3-3.1-7.3-3.1-7.3c-0.8-1.6-1.4-3.1-3.9-3.7c-2.5-0.6-3.2-0.5-3.6-1.7c-0.8-0.1-1.3-0.1-1.8,0.1c0.4-0.4,1-0.7,1.8-0.9
			c5.2-1.3,6.3-2.9,7-3.7c6.8-0.3,8.4-2.1,11.1-3.8c3.1-0.5,5-1.4,6.8-4C138.3,58.6,139.5,48.6,136.4,49.1z M79.6,70.5
			c-0.2-0.1-0.6-0.4-0.7-0.8c1.2-0.3,3.5-1.2,4.5-2c2.9-1.8,0,0.4-0.8,1.4C82.6,69,82.1,69.8,79.6,70.5z M51.4,50.5
			c0,0-0.4-1.5,0.3-1.7c1.2-0.3,3-2.3,4.3-2.6c0,0,0.9-1-4.9,1.3c0-0.5,0-0.6,0-1.4c0.2-0.1,1.2-0.7,1.9-0.8
			c0.1-0.7-1.4-0.2-1.9-0.5c-0.3-0.3-0.1-1,0-2c2.6,0.6,4.4,1,7.1,1.2c0.4,0.3,2.7,1.6,1.8,0.4l0-0.2c0.6,0,0.8,0,1.4,0.1
			c0.2,0.7,0.4,0.9,0.4,0.9s0,0,0.3,0.3l0,4.4c-0.5,0.3-1.6,1-2.6,1.5c-1,0.3-1.4,0.3-2,0.3c1.5-1,2-2.1,4-3.2c0,0-1.1-1-5.3,2.2
			c-1,0.8-2.3,0.9-3.1,0.9v-0.1c1.8-0.8,4.1-3.6,6-4.3C59,47.2,57.8,46.5,51.4,50.5z M41.8,51.1l-1.3,0c-0.1-0.5-0.2-1.3-0.2-1.3
			c2.5-0.1,3.5-0.6,4.6-1.1c1.1-0.5,2-1.9,3.8-1.8c0.2,0,0.2,0.8,0.3,1.3c-0.3,0.2-1.2,0.3-1.5,0.5C45.7,49.6,45.6,51,41.8,51.1z
			 M80.3,9.8c2.6,0.6,5,1.6,7.1,2.8c0.3,1.1,0.2,2.2-0.3,3.3c-2.2-1.7-4.6-3.1-7.2-4.3C80.8,11.3,80.7,10.6,80.3,9.8z M70.7,8
			L70.7,8c1.4,1.6-0.6,3.9-4.4,5c-3.8,1.1-7.4,0.3-8.7-1.3c-1.4-1.6,0-3.5,3.8-4.6C65.2,6,69.4,6.4,70.7,8z M49,17.9
			c-0.7,0.6-0.5,1.4-0.7,2.1c-0.1,0.3-0.3,0.9-0.6,1.6c-0.3,0.4-0.6,0.9-0.9,1.3c-0.5-0.3-1.1-0.7-1.6-1.2c-0.3-0.3-0.5-0.6-0.7-0.9
			c1.4-1.5,3.8-3.2,5.2-4.2C49.4,17.1,49.2,17.6,49,17.9z M67.6,40.6c0.2-0.5,0.4-0.9,0.8-1.5c0.4-0.5,1.6-0.6,2.1-0.5
			c0.5,0,0.9,0.2,1.1,0.1c0.3-0.1,0.6-0.4,1-0.8c0.4-0.4,0.9-0.2,1.4-0.1c0.6,0.1,1,0.3,1.3,0.5c0.3,0.2,0.4,0.1,0.7,0.5
			c0.2,0.2,0.2,0.8,0.2,1.1c-3.3,0.8-6,1.1-9.1,1.4C67.3,41.2,67.5,40.9,67.6,40.6z M75.3,18.9c-0.7,0.2-1.5,0-1.8,0.4
			c-0.3,0.4-0.3,1.9-2,1.1c-1-1.3-1.4-0.7-2-1.5c-0.6-0.8-0.1-1.4,0.4-1.6c0.5-0.2,0.4-0.7,0.3-1.2c-0.1-0.5-0.8-0.7-0.5-1.6
			c0.1-0.3,0.2-1.1,1.4-0.6c0.4,0.2,3.7,2.7,4.5,3.5C76.4,18.3,76,18.8,75.3,18.9z M50.7,11c1.4-0.9,3.9-2,4.8-2.1
			c-0.3,0.5-1.2,1.7-1.4,2.1c-2.5,1.3-7.1,5-10.3,8.7c-0.4-1.3-0.1-2.6,0.1-3.2C46.1,13.8,48.3,12.5,50.7,11z M43.9,22.4
			c0.4,0.5,1.2,1.4,1.9,1.8c-2.2,3.4-4.1,7.6-5.2,11.5c-1.1-0.6-2.4-2.2-2.9-3.6c0.5-2.6,3-7,5.8-10.3C43.6,22,43.8,22.3,43.9,22.4z
			 M41.4,38.1c0.8,0.5,1,1,1.8,1.4c-0.8,0.1-1.3,0.1-2.3,0.4C41.1,39.3,41.3,38.7,41.4,38.1z M39.6,37c-0.6,0.2-1.9,0.6-1.5,0.8
			c0.6-0.1,1.5-0.1,2.1-0.1c-0.2,0.9-0.5,2-0.6,2.8c-0.8,0.3-2.2,0.8-2.4,1.5c0.6-0.1,1.5-0.4,2.2-0.6c-0.1,0.9-0.2,1.7-0.2,2.6
			c-0.4,0.2-1.1,0.8-1.4,1.1c0.3-0.1,1-0.3,1.4-0.4c0,0.2,0,0.9,0,1.1c0,0.4-0.2-2.7,0,1c-0.3,0.4-0.7,0.8-0.9,1
			c0.2-0.1,0.7-0.2,0.9-0.2c0,1.1,0.4,2.6,0.5,3.4c-0.5-0.1-1.3-0.7-1.9-1.3c-0.5-0.5-0.8-1-1.1-1.6c-1-3.8-0.5-9.4,0.5-14.7
			C37.8,34.8,38.9,36.2,39.6,37z M35.8,45.5c0,0-2.2-9.1,0.4-16.5c0,1.2,0.2,2.7,0.5,3.6C36.6,32.6,35.1,39.6,35.8,45.5z M42.5,45.3
			c-0.7,0.4-1.3,0.8-2.2,1.3c0-1,0-1.4,0.1-2.2c0.6-0.1,1.3-0.5,1.8-0.7c1.9-0.6,2-1.3,3.5-1.7c0,0-0.6-0.7-4.3,0.9
			c-0.2,0.1-0.7,0.4-0.9,0.5c0-0.6,0.2-1.7,0.4-2.2c1.2-0.4,1.6-1,2.8-1.4c1.6,0.7,3.6,1.8,5.4,2.3c0.1,1.2,0.1,3-0.7,3.2
			c-1,0.3-2.3,1.3-3.4,2c-1.1,0.7-2.3,1.7-4.4,2.2c-0.1-0.7-0.1-1.1-0.2-1.8c1.2-0.3,2.2-0.8,3-1.2c1.9-0.8,2.4-2.1,4.3-2.7
			C47.6,43.7,47.3,42.8,42.5,45.3z M42.2,36.7c0.7-0.4,2.6-0.7,2.2-1c0,0-0.9,0-2,0.1c1.3-3.8,2.4-6.5,4.9-9.7
			c0.9,0.9,0.5,1.9,1.7,2.3c0.8,0.6,0.6,1.3,1.1,1.8l0.5,0.3c-0.5,2.2-1,5.3-1.5,9.3C46.2,39.2,44.1,38.2,42.2,36.7z M53.2,32.3
			c0,0.1,1.3,0.5,0.7,1.7c-0.5,1.3-0.3,1.9,0.1,2.3c0.3,0.5,0.5,1,0.7,1.5c0.2,0.5,1,1.1,1.3,1.4c0.3,0.2,0.2,0.9,0.2,0.9
			s0.7,0.8,1.2,1.1c0.2,0.1,0.3,0.2,0.4,0.3c-2.6-0.2-4.3-0.5-6.5-1C51.4,38.5,51.8,35.4,53.2,32.3z M57.4,38.9
			c-0.5-1.2-0.2-1.5,0.3-1.6c0.4,0,1.4,0.9,1.7,1.4c0.3,0.5,0.6,0.7,0.9,1.4c0.2,0.5,0.7,1.1,1,1.7c-0.7,0-1.6-0.1-2.2-0.1
			c-0.2-0.3-0.1-0.6-0.3-0.8C58.2,40.4,57.9,40,57.4,38.9z M72.4,58.1c1.7-1.9,1.7-2.4,4.3-4.6c0,0,0.3-1.4-5,2.4
			c-0.5,0.3-1.1,0.5-1.3,0.2c1.6-1.2,2.2-3.2,4-4c0,0-0.5-0.9-5.1,2c-0.5,0.3-1.1,0.4-1.6,0c1.3-1,2.3-2.5,3.7-3.1
			c0,0-0.2-0.6-4.6,1.7c-0.4,0.2-0.6,0.3-1.2,0c1.2-1,2.2-2.3,3.5-2.8c0,0,0-0.6-4.4,1c0-0.6,0-0.6,0-0.9c0.4-0.2,0.9-0.8,1.8-1.1
			c0,0-0.4-0.5-1.9-0.1c0,0,0-1.9,0.1-2.8c0.4,0.2,1.1,1,1.1,1s0.8,0.3,1.1,0.1c0.3-0.2,1.6-0.8,2.4-0.5c0.8,0.2,2.1,1.2,2.4,1.3
			c0.3,0.1,0.7,0.2,0.9,0.8c0.2,0.6-0.1,0.8-0.1,1.1c0.1,0.3,0.3,0.5,1.4,0.9c1.2,0.4,1.3,0.4,1.7,0.7c0.3,0.3,0.9,0.2,1.1,0.1
			c0.3,0,0.5-0.5,0.7-0.5c0.3-0.1,1.2,0,1.2,0c0.7,0.2,0.4,1,0.4,1.6c0,1.1-1.1,1.4-1.8,2.4C75,56.9,73.1,60.3,72.4,58.1z
			 M79.3,49.4c-1-0.1-1.5,0.2-2.4,0.5c-0.9,0.3-1.5,0-1.8-0.5c-0.3-0.5-0.2-0.8,0-1.9c0.2-1.1-1.3-0.8-2-1.2c-0.7-0.4,0.1-1.3,0.3-2
			c0.2-0.6-1.3-0.8-1.7-0.7c-0.4,0.1-0.6,1.5-1.4,1.9c-0.8,0.4-1,0.1-2-0.4c-0.9-0.5-1.1-1-1.1-1.9c3.4-0.4,6-1,8.8-1.5
			c0.7-0.1,0.4,0.5,1.1,0.2c0.1,0,0.4-0.3,0.6-0.5c0.2,0.4,0.5,1.5,0.7,2.1c-0.3-0.1-0.8-0.2-1.1-0.4c-0.4-0.2-2.3,0.3-2.6,0.6
			c-0.3,0.2,0.5,0.3,0.9,0.4c0.4,0.1,1,0.5,1.3,0.6c0.3,0.1,0.7,0.9,1.3,0.9c0.2,0,0.5,0,0.6,0.3c0.4,1.2,0.8,2.4,1.1,3.7
			C79.7,49.5,79.5,49.4,79.3,49.4z M78.3,39.5c0.1-0.5,0.1-1.1,0-1.6c-0.2-0.7,2.3-1.8,2.3-1.8s1-0.4,1.8-0.8
			c0.8-0.4,0.8-2.7,0.4-3.6c-0.4-0.9-0.6-1.9-0.1-2.5c0.5-0.6,2,1,2.8,0.7c0.6-0.2,0.5-0.8,0.8-1.2c1.3,1.9,2.3,3.9,3.3,6
			c-3,2-7.1,3.8-10.8,4.8C78.6,39.5,78.4,39.5,78.3,39.5z M84.4,23.8c0.3,0,0.7,0.1,1,0.1c0.8,0.1,1.9-0.1,2.1-1
			c0.2-0.9-0.2-2.8-0.2-2.8c-0.2-0.7-1.3-0.8-1.5-1.2l-0.1-0.1c0.6-0.6,1-1.2,1.4-1.8c4.1,2.9,7.2,6.4,9.5,10.2
			c-1.3,2.5-3.3,4.9-6.2,7C88.8,30.5,86.8,27,84.4,23.8z M86.8,16.8c-0.4,0.6-0.8,1.2-1.4,1.8c-0.3-0.3-0.8-0.4-1.6-0.3
			c-1.1,0.1-1.5-0.7-1.5-0.7s1.6-1.2,0.9-1.9C82.4,15,78.6,15,78.6,15c-1.4-0.4-1.3,0.6-1.5,1.1c-1-0.8-2-1.6-3.1-2.4l0.1,0
			c0-1.5,1.7-0.6,1.8-1.2c0.1-0.6-1.8-1.3-1.2-1.5C79.2,12.2,83.3,14.3,86.8,16.8z M71.9,6c-0.3-0.1-1.7-0.7-2.1-0.7
			c0.3-0.2,0.5-0.3,0.6-0.3c2.4,0.1,4.8,0.5,7.1,1.1C75.8,5.9,73.7,5.7,71.9,6z M43.3,17.1c-0.3,0.6-0.6,2.3-0.4,3.4
			c-2.6,3.2-4.8,7.5-5.8,10.8c-0.3-0.6-0.7-2-0.8-2.8C37.8,24.2,40.7,19.9,43.3,17.1z M47.5,50.4c0.9-0.3,1.3-0.4,1.4-0.5
			c0.2,0,0.2,0.4,0.4,1.4c-1.4,0.5-4.6,0.5-6.4,0.2C45.2,51.4,46.3,50.9,47.5,50.4z M74.2,61.7c-0.3-0.4-0.5-0.7-0.6-1.2
			c4.7-1.2,9.5-6.3,6.7-3c-0.6,1-1.6,2.2-3.9,3.3L74.2,61.7z M81.2,59.7c2.7-2,2.4-1.4,0.5,0.2c-1,0.7-1.5,2.6-6.1,4.2
			c-0.3-0.2-0.5-0.6-0.6-1.1C75,63,78.9,61.5,81.2,59.7z M84.4,61.5c-2.1,1.7-1.4,2.2-5.3,4c-1.1,0.4-2.5,1-2.5,1
			c-0.2-0.3-0.5-0.9-0.6-1.2C81.7,63.8,85.1,60,84.4,61.5z M83.9,64.7c1.9-1.2-0.5,0.5-1,1.5c-1.6,1.3-2.8,1.8-4.8,2.5
			c-0.2-0.3-0.5-0.6-0.7-1C79.7,67.5,83.5,64.9,83.9,64.7z M94.8,56.1c0.8-2,1.3-3.1,1.1-4.2c-0.1-0.5,0.6-0.7-0.3-1.5
			c-1-0.8-4.4,3.2-5.5,2.6c-0.7-0.4-1.3,0.2-2,0c-0.4-0.1-0.6-0.3-0.8-0.5c5.3-2.6,9.2-5.8,11.7-9.1c-2.7,3.5-7,6.2-12.7,8.5
			c-0.5-0.1-0.6,0.2-1-0.2c-0.6-0.6-2-0.9-3-0.7c-0.6,0.1-1.4-0.1-1.4-0.1s-0.3-0.7-0.8-1.1c-0.2-1.6-0.3-2.4-0.6-4.1
			c0.3-0.1,0.8-0.1,0.8-0.1c0.8,0.1,0.8,0.5,1.2,0.6c0.5,0.1,1.2-0.4,1.4-0.8c0.1-0.4-0.6-0.8-1.2-1.1c-0.6-0.3-0.7-0.5-1.1-0.7
			c-0.4-0.2-1.1,0.1-1.5,0.1c-0.2-0.9-0.3-1.8-0.5-2.6c0.1,0,0.3-0.1,0.4-0.1c4.7-1.4,7.8-3.6,10.9-5.8c1.7,3.5,3.5,6.8,4.1,10.4
			c-0.6-3.7-1.7-7.4-3.3-10.9c3-2.2,5-4.7,6.1-7.2c1.7,2.7,2.9,5.5,3.6,8.3c-0.7-3-1.9-5.9-3.4-8.6c0.1-0.3,0.3-0.7,0.3-1
			c-0.1,0.3-0.3,0.6-0.4,0.9c-2.4-4.1-5.5-7.8-9.4-10.8c0.4-1.1,0.4-2.3,0-3.5c3.8,2.3,7,5.5,9.9,9.7l-0.1-0.2
			C93.5,15.8,88,11,79.5,8.7l-1-0.5l-3.7-0.7c-0.1-0.5-1-0.9-1.2-1c2-0.2,4.1-0.2,5.9,0.3c13,4.6,22.4,17.1,22.4,31.7
			c0,6.7-3,15-7.5,21.2C94.6,58.4,94.6,56.8,94.8,56.1z M45.5,93c3.4-0.6,7.5-2.9,10.6-5.7c-0.1,0.1-0.2,0.3-0.2,0.4
			C54,93.3,47.3,94,45.5,93z M49.4,94.2c2.5,0.1,5.5-0.9,8.1-4.8C55.5,96.1,50.6,94.7,49.4,94.2z M67.2,93.6
			c-1.3-0.9-1.4-3.4-0.3-4.4c0.1-0.9,0.5-1.1,0.4,0.7c-0.3,3.5,2.3,3.5,3.1,4C71.3,94.4,68.5,94.5,67.2,93.6z M72.7,91.6
			c-0.2-0.4-0.1-0.9,0.8-1.7c4.2-3.6-0.4-3.2,1.6-4.7c-0.3,1,6.4,1.4-1.1,5.1C73.6,90.6,73,91.1,72.7,91.6z M79.3,93.1
			c-0.1,0.1-0.1-0.1-0.2-0.2c-0.2-0.4-0.6-0.1-0.6,0c0.6,0.6,0.3,1.4,0,0.8c-0.1-0.2-0.4-0.3-0.6-0.1c0.4,0.5,0.3,0.9-0.1,1.4
			c-0.3,0.4-1.1,0.6-1.2,0.3c0-0.3,0.3-0.1,0.5-0.3c0.2-0.3,0.2-0.8-0.3-1.2c-0.6-0.3-1.4-0.2-1.2,0.5c0.2,0.3,0.5,0.6-0.1,0.6
			c-0.2,0-0.5,0-0.9-0.1c-0.4-0.1-0.9-0.4-1-0.8c0-0.5,0.3,0.1,0.7,0.1c0.6,0,0.9-1.4,2.3-1.3c0.2,0,0.4,0,0.5-0.2
			c0.1-0.2,0-0.3,0.2-0.4c0.1,0,0.3-0.1,0.5,0c0.4,0,0.3-0.1,0.4-0.3c0.2-0.1,0.4-0.1,0.6,0C79.4,92.2,79.5,92.9,79.3,93.1z
			 M80,90.5c0.7,0,0.9,0.8,0.5,1.2c-0.4,0.4-0.2-0.2-0.4-0.6c-0.1-0.2-0.4-0.3-0.8-0.4c-0.2-0.1-0.3-0.3-0.2-0.4
			C79.5,90.5,79.7,90.5,80,90.5z M102.2,72.7c0,0,0.3,1.3,2.2,1.7c1.8,0.3,4.3,1.3,4.5,3c0.1,0.8,5.1,0.7,3.9,4.1
			c0,0-2.4-0.1-5.4-0.6c-0.2,0.2,1.6,0.4,0.8,0.8c-1.2,0.7-7.1,1-5.9-0.6c0.3-0.3,1.6-0.5,1.6-0.7c0,0-1.1-0.1-2.3,0.2
			c-0.9,0.3-1.6,0.2-2.1,0c-0.7-0.4-1.2-1,0.6-1.4c1.8-0.4,0.7-0.3-0.9-0.3c0,0-3,0-2.9-0.6c0-0.7,1.3-0.7,3.3-1.1
			c1.6-0.4-0.1-0.2-1.1-0.4c0,0-2.6,0-3-0.5c-0.4-0.5,1.1-0.8,0.6-1.2c-0.9,0.6-3.2,0.3-2.6,1.4c0.2,0.4,1.8,0.8,2.3,0.9
			c-2.1,0.5-1.6,1.7-0.6,2.4c0.4,0.2,0.7,0.4,1,0.6c-1.7,1-3.4,1.2-3.7,0.8c-0.4-0.5,1-0.7,0.7-1.2c-7.7,1.1-1.2-1.3-1.2-1.3
			c-0.1-0.7-5.7,1.2-5.3-0.2c0.9-0.5,2.1-0.6,3.1-1c-0.3-0.6-4.4,0.3-5-0.3c-0.5-0.6,1.3-0.5,1.7-0.7c-0.2-0.5-4.9-0.9-5.9-0.6
			c-0.4-0.6-2.6-1.8-3.6-1.8c-0.4-1.4-2-2.2-2.7-2.4c-0.2-0.8-1-1.6-1.4-2c-0.5-0.4-0.8-0.5-1.3-0.8c0-0.4-0.8-1.7-1.2-2.3
			c-0.5-0.7-0.9-0.8-1.4-1.1c-0.1-0.6-0.3-1.2-0.8-1.9c-0.4-0.5-0.7-0.9-1.1-1.1c0.1,0-0.2-1.1-0.7-1.6c-2.7-4.8-13.4-4.4-26.6-4
			c-8.5,0.3-18.1,0.4-27.5-1.2c5,4.7,28.6,3.4,39.6,4.9c-2.3,1.2-5.9,0.5-10.4,1c-0.7,0.9,7.1,2.3,14.6,2.8
			c-2.4,0.4-5.6,0.7-8.2,1.4c-1.8,0.4,9.2,1.9,13.6,2.1c-4.4,1-9.5,1-8.7,1.9c2.1,1,8.1,0.8,12.1,0.9c-4.8,1.8-8.9,0.5-8.6,1.3
			c0.8,0.2,2.7,0.8,5.1,0.9c2.2,0.1,5.3-0.1,6.5,0.3c0.3,0.4-1.9,0.3-3.6,0.6c-4.2,0.8-5.6,0-4.6,0.7c0.7,0.5,4.1,0.6,5.3,0.6
			c2.6,0,5.3,0.1,5.8,0.9c-1.4,0.1-2.5-0.3-4,0.1c-3.4,0.4-5.2-0.2-4.4,0.5c1.4,0.7,4.1,0.7,5.3,0.8c3.9,0.3,4.7,0.8,5.4,1.4l-1,0
			c-2.7-0.3-5.7-0.2-8.2-0.4c-0.5,0.7,2.8,0.7,3.2,1.7c-2.9,0.8-5.8,1.3-8.9,1.3c-0.5,0-1.7-0.4-1.6-0.1c0.2,0.3,1.3,0.5,1.8,0.6
			c2.3,0.6,3.7,0.2,5.2,0.3c0.8,1.3-11.1,0.7-9.8,1.9c2-0.5,4.4,0.4,5.9,0.2c-0.4,0.2,0.9,0.5-3.2,1.2c-3.4,1.1-8.7,7.7-15.1,6.3
			c-1.5-0.6-1.7-1.1-1.8-1.2c4.9,1.3,14-5.3,14-5.3c-2.2-1-11.6,5.4-15.6,4.2c-0.9-0.7-0.9-0.6-0.9-0.9c5.6-1,13.3-5.5,13.3-5.5
			c-6.8,0.8-12,4.1-16.1,4c-0.8-0.1-1,0-1.3-0.7c0,0,9.9-5,22.6-6.2c-1.7-0.3-4-2-4.1-3.4c-2.2-0.5-4.1-1.8-4.2-3.1
			c-3.6,0.1-4.9-1.1-7.1-4.1c-6.9,0-8.1-3.9-8.1-3.9c-12.7,0-13.7-6.1-13.7-6.1c-8.6-0.4-12.1-6.7-12.1-6.7
			c10.5,3.7,49.7-1.2,58.5,2.8c7.9,3.6,9,20,21.6,17.8c-1.4-0.4-2.7-0.8-4-1.4c0.8-0.3,2.8-1.3,4.1-2.1c5.7-3.7,8.8-8.5,14.4-14.7
			c4.4-5.8,27-1.5,33.1-3c-0.4,2.1-3,3.7-8.5,4.5c-2.3,0.4-0.6,2.7-4.9,3.7c-3,0.7-3.2,3.1-11,3.4c-1.1,0-2.6,2.8-9.1,4.1
			c-0.6,0.1-1.2,0.3-1.8,0.4c-1.3-0.3-1.9-0.6-2.3-1c1.7,0.1,3.1,0.2,3.4-0.3c-0.6-0.1-2.2-0.4-2.1-0.8c2.6,0,5.5-0.1,5.1-0.6
			c-1.7,0-2.4-0.6-3-1.1c2.2,0.3,5.5,0.1,6.4-0.7c0.3-0.4-3.5,0.2-5.3-1.3l-0.1,0c2.1-0.1,14.2,0.1,13.4-1.4
			c-2.7,0.5-8.7-0.2-11.8-0.7c1.4-0.2,3.2-0.6,4.9-0.6c5.5-0.2,14-0.4,13.3-2.4c-5.3,1.1-11.5,0.3-15.2,0.2c0.1-0.1,0.3-0.2,0.4-0.3
			c1.6-1.1,9.2-1.2,11.5-1.5c1.9-0.2,12-0.7,12.3-2.2c-1.3,0.7-7,0.2-12.1,0.4c-5.3-0.2-11.2-0.3-14,2.1c-0.7,0.6-1.8,1.4-2.5,2.3
			c-0.5,0.6-2.1,2.6-2.5,3.1c-0.9,1.4-5.5,6.6-9,8.8c-1,0.5-2,0.4-2.1,0.8h0c0.2,0,0.4,0,0.6,0.1c4.2,0.5,8.3,1.3,10.4,2.8
			c-0.4-0.6-0.2-1.1,0.5-1.5c0,0.4,1.4,2,2.8,2C101.3,73,102.2,72.7,102.2,72.7z"/>
		<path class="st0" d="M53.1,76.5c1,1.1,3.1,2.1,7.7,0.9c1.9,0.3-1.3-1.5-2.2-1.5C54.8,77.3,52.7,75.7,53.1,76.5z"/>
		<path class="st0" d="M102.5,77.3c1.5,0.5,2,3.5,4.7,1.3C108.8,77.3,99,76.2,102.5,77.3z"/>
		<path class="st0" d="M61,78.4c-2.6,0.9-5.2,0.1-4.7,0.5c0.7,1.1,4.2,1.5,7.1,0.8c1.5,0.1,0-0.5-0.4-0.6C61.6,79,61.5,78.3,61,78.4
			z"/>
		<path class="st0" d="M37.7,66.2c-1-0.1-3.2-0.7-2.6-0.2c1.2,1.6,3.6,3.4,16,2.5c0-0.2-0.9-0.4-2-0.8c-4.2-0.4-1.7-1.2-4.7-1.3
			C42.5,66.4,40.9,66.6,37.7,66.2z"/>
		<path class="st0" d="M45.2,70.2c-1.9-0.2-2.5-0.6-2.4-0.3c1.2,3,9.5,2.8,12.5,2.1c0-0.2-1-0.4-1.5-0.7c-3.6-0.6-1.4-0.9-3.3-1.2
			C48.6,70,46.6,70.3,45.2,70.2z"/>
	</g>
</g>
</svg>
